2.2Hzhigh3min_grf.mot
version=1
nRows=27
nColumns 19
inDegrees=yes
endheader
time	1_ground_force_vx	1_ground_force_vy	1_ground_force_vz	1_ground_force_px	1_ground_force_py	1_ground_force_pz	1_ground_torque_x	1_ground_torque_y	1_ground_torque_z	2_ground_force_vx	2_ground_force_vy	2_ground_force_vz	2_ground_force_px	2_ground_force_py	2_ground_force_pz	2_ground_torque_x	2_ground_torque_y	2_ground_torque_z
            3.751500	           -0.364798	           -5.049279	            0.391970	           -0.233013	            0.005581	           -0.255695	           -0.559498	           -0.165354	           -0.315548	            0.102963	           -2.577403	           -0.103095	           -0.232311	            0.006130	           -0.833667	           -0.375204	           -0.143080	           -0.019196
            3.752000	           -0.043295	           -5.230466	            0.619681	           -0.233013	            0.005581	           -0.255695	           -0.512519	            0.037601	           -0.169518	           -0.040307	           -1.840816	           -0.241191	           -0.232311	            0.006130	           -0.833667	           -0.488350	           -0.029853	           -0.075294
            3.752500	           -0.411129	           -4.868236	            0.209434	           -0.233013	            0.005581	           -0.255695	           -0.533002	            0.213441	           -0.278355	            0.009243	           -2.577574	           -0.149983	           -0.232311	            0.006130	           -0.833667	           -0.432164	            0.017614	           -0.075150
            3.753000	           -0.273226	           -5.049065	            0.345887	           -0.233013	            0.005581	           -0.255695	           -0.632619	            0.333655	           -0.271721	           -0.038292	           -2.393428	           -0.196234	           -0.232311	            0.006130	           -0.833667	           -0.375561	           -0.048418	           -0.056559
            3.753500	           -0.089396	           -6.311282	            0.431733	           -0.233013	            0.005581	           -0.255695	           -0.485526	            0.093522	           -0.284050	            0.054037	           -2.024458	           -0.288816	           -0.232311	            0.006130	           -0.833667	           -0.413064	           -0.067459	           -0.056611
            3.754000	           -0.364798	           -5.049279	            0.391970	           -0.233013	            0.005581	           -0.255695	           -0.559177	           -0.138188	           -0.183846	           -0.133986	           -1.841321	           -0.194223	           -0.232311	            0.006130	           -0.833667	           -0.394057	           -0.124242	           -0.019121
            3.754500	           -0.456711	           -5.048904	            0.300486	           -0.233013	            0.005581	           -0.255695	           -0.499266	           -0.248579	           -0.319964	            0.142626	           -0.552607	            0.185681	           -0.232311	            0.006130	           -0.833667	           -0.413011	           -0.095414	           -0.169813
            3.755000	           -0.273193	           -5.229331	            0.345114	           -0.233013	            0.005581	           -0.255695	           -0.463364	           -0.202591	           -0.236838	            0.288307	           -2.023780	           -0.241988	           -0.232311	            0.006130	           -0.833667	           -0.431950	           -0.048353	           -0.131936
            3.755500	           -0.044287	           -5.408962	            0.206204	           -0.233013	            0.005581	           -0.255695	           -0.532499	            0.084041	           -0.225657	           -0.137371	           -0.920078	           -0.331722	           -0.232311	            0.006130	           -0.833667	           -0.431941	           -0.057604	           -0.188521
            3.756000	           -0.044190	           -4.688293	            0.301008	           -0.233013	            0.005581	           -0.255695	           -0.630908	            0.278379	           -0.281000	           -0.089191	           -1.288205	           -0.333056	           -0.232311	            0.006130	           -0.833667	           -0.413267	           -0.019927	           -0.131843
            3.756500	           -0.090180	           -4.507839	            0.256039	           -0.233013	            0.005581	           -0.255695	           -0.610165	            0.296605	           -0.226540	           -0.037586	           -2.577911	           -0.103035	           -0.232311	            0.006130	           -0.833667	           -0.450609	           -0.076981	           -0.075479
            3.757000	           -0.594339	           -4.508133	            0.303146	           -0.233013	            0.005581	           -0.255695	           -0.612130	            0.056046	           -0.249068	           -0.087136	           -1.841152	           -0.194243	           -0.232311	            0.006130	           -0.833667	           -0.413278	           -0.001492	            0.000176
            3.757500	           -0.410755	           -5.049091	            0.346228	           -0.233013	            0.005581	           -0.255695	           -0.538493	           -0.184343	           -0.204848	            0.053496	           -1.841314	           -0.006591	           -0.232311	            0.006130	           -0.833667	           -0.356486	           -0.124107	           -0.019137
            3.758000	           -0.135712	           -5.589639	            0.297371	           -0.233013	            0.005581	           -0.255695	           -0.573978	           -0.220716	           -0.305956	           -0.178677	           -2.395274	            0.179250	           -0.232311	            0.006130	           -0.833667	           -0.431738	           -0.095953	           -0.037854
            3.758500	           -0.181459	           -4.868978	            0.392288	           -0.233013	            0.005581	           -0.255695	           -0.503059	           -0.091715	           -0.213569	            0.052852	           -1.657333	            0.040995	           -0.232311	            0.006130	           -0.833667	           -0.356903	           -0.019791	           -0.113017
            3.759000	           -0.227889	           -4.147138	            0.212070	           -0.233013	            0.005581	           -0.255695	           -0.608379	            0.130079	           -0.214337	           -0.179527	           -2.209620	           -0.242446	           -0.232311	            0.006130	           -0.833667	           -0.394482	           -0.019859	           -0.131851
            3.759500	           -0.273663	           -5.769145	            0.113516	           -0.233013	            0.005581	           -0.255695	           -0.491010	            0.269050	           -0.291122	           -0.180856	           -1.841323	           -0.241131	           -0.232311	            0.006130	           -0.833667	           -0.338136	           -0.001221	            0.000144
            3.760000	           -0.319524	           -5.048287	            0.162577	           -0.233013	            0.005581	           -0.255695	           -0.493475	            0.241381	           -0.312013	           -0.042862	           -1.105059	           -0.003922	           -0.232311	            0.006130	           -0.833667	           -0.375875	            0.027539	           -0.150541
            3.760500	           -0.090213	           -4.327574	            0.256812	           -0.233013	            0.005581	           -0.255695	           -0.553809	           -0.045551	           -0.190557	            0.102299	           -2.393255	           -0.102438	           -0.232311	            0.006130	           -0.833667	           -0.375646	           -0.029379	           -0.094192
            3.761000	           -0.318191	           -4.870381	            0.713621	           -0.233013	            0.005581	           -0.255695	           -0.573008	           -0.212025	           -0.200978	            0.055490	           -2.393759	           -0.008562	           -0.232311	            0.006130	           -0.833667	           -0.337828	           -0.095479	           -0.075594
            3.761500	           -0.227350	           -5.229322	            0.345000	           -0.233013	            0.005581	           -0.255695	           -0.463349	           -0.258031	           -0.235121	            0.101675	           -2.209442	           -0.007925	           -0.232311	            0.006130	           -0.833667	           -0.356828	           -0.029580	           -0.018800
            3.762000	           -0.227365	           -5.769922	            0.296825	           -0.233013	            0.005581	           -0.255695	           -0.461081	           -0.063921	           -0.234275	            0.005338	           -1.473354	            0.041672	           -0.232311	            0.006130	           -0.833667	           -0.413106	           -0.057939	           -0.075427
            3.762500	           -0.090537	           -5.047850	            0.070296	           -0.233013	            0.005581	           -0.255695	           -0.601836	            0.185438	           -0.170624	           -0.135397	           -1.472355	           -0.380622	           -0.232311	            0.006130	           -0.833667	           -0.450634	           -0.067595	           -0.056595
            3.763000	           -0.181588	           -5.409382	            0.298258	           -0.233013	            0.005581	           -0.255695	           -0.517692	            0.305826	           -0.230607	           -0.041615	           -1.472686	           -0.192949	           -0.232311	            0.006130	           -0.833667	           -0.356878	           -0.019992	           -0.056466
            3.763500	           -0.502162	           -5.950634	            0.388447	           -0.233013	            0.005581	           -0.255695	           -0.483820	            0.204172	           -0.282387	            0.050735	           -1.103884	           -0.238603	           -0.232311	            0.006130	           -0.833667	           -0.488367	           -0.020534	           -0.037560
            3.764000	           -0.135907	           -5.769511	            0.204886	           -0.233013	            0.005581	           -0.255695	           -0.419574	           -0.045467	           -0.211591	            0.096900	           -0.919399	           -0.284894	           -0.232311	            0.006130	           -0.833667	           -0.319281	           -0.038426	           -0.150801
            3.764500	           -0.182094	           -4.507464	            0.164555	           -0.233013	            0.005581	           -0.255695	           -0.606356	           -0.220748	           -0.307869	            0.193237	           -1.655487	           -0.334490	           -0.232311	            0.006130	           -0.833667	           -0.337812	           -0.095613	           -0.037894
